<?xml version="1.0" encoding="UTF-8"?>
<svg id="Layer_2" data-name="Layer 2" xmlns="http://www.w3.org/2000/svg" viewBox="0 0 853.75 423.04">
  <defs>
    <style>
      .cls-1 {
        stroke-width: 12px;
      }

      .cls-1, .cls-2 {
        fill: none;
        stroke: #e5978a;
        stroke-miterlimit: 10;
      }

      .cls-2 {
        stroke-width: 8px;
      }

      .cls-3 {
        fill: #77b6ea;
        stroke-width: 0px;
      }
    </style>
  </defs>
  <path class="cls-3" d="m566.73,211.23v4.78h101.64c3.24-.32,6.23-1.67,8.68-3.8s4.34-5.02,5.38-8.41c1.48-4.82.82-9.28-.26-12.63s-2.61-5.58-2.86-5.94c-3.17-4.5-7.98-7.06-12.73-7.68s-9.41.71-12.29,3.97c-1.92,2.17-3.21,5.39-3.77,8.32s-.38,5.55.64,6.54c.39.38.93.54,1.5.53s1.15-.2,1.63-.53c1.32-.91,1.47-2.69,1.6-4.74s.25-4.38,1.53-6.4c1.41-2.23,3.65-3.17,5.59-3.55s3.58-.19,3.79-.17c2.89.37,5.09,1.96,6.64,3.59s2.45,3.3,2.74,3.83c1.55,2.87,2.4,6.4,2.44,9.77s-.74,6.58-2.44,8.79c-1.35,1.77-3.12,2.69-4.77,3.17s-3.2.53-4.1.54c-5.44.1-17.66.18-34.98.2s-39.74-.03-65.6-.2h0Z"/>
  <path class="cls-3" d="m565.14,228.02v4.78h151.36c4.82-.32,9.28-1.67,12.92-3.8s6.46-5.02,8.01-8.41c2.2-4.82,1.23-9.28-.39-12.63s-3.89-5.58-4.26-5.94c-4.72-4.5-11.89-7.06-18.95-7.68s-14.01.71-18.3,3.97c-2.85,2.17-4.78,5.39-5.61,8.32s-.57,5.55.95,6.54c.58.38,1.39.54,2.23.53s1.71-.2,2.42-.53c1.97-.91,2.18-2.69,2.38-4.74s.37-4.38,2.28-6.4c2.1-2.23,5.44-3.17,8.33-3.55s5.33-.19,5.64-.17c4.3.37,7.58,1.96,9.89,3.59s3.65,3.3,4.08,3.83c2.31,2.87,3.58,6.4,3.63,9.77s-1.1,6.58-3.63,8.79c-2.01,1.77-4.64,2.69-7.11,3.17s-4.76.53-6.11.54c-8.1.1-26.29.18-52.08.2s-59.18-.03-97.69-.2h0Z"/>
  <path class="cls-3" d="m653.03,248.25v-4.78h101.64c3.24.32,6.23,1.67,8.68,3.8s4.34,5.02,5.38,8.41c1.48,4.82.82,9.28-.26,12.63s-2.61,5.58-2.86,5.94c-3.17,4.5-7.98,7.06-12.73,7.68s-9.41-.71-12.29-3.97c-1.92-2.17-3.21-5.39-3.77-8.32s-.38-5.55.64-6.54c.39-.38.93-.54,1.5-.53s1.15.2,1.63.53c1.32.91,1.47,2.69,1.6,4.74s.25,4.38,1.53,6.4c1.41,2.23,3.65,3.17,5.59,3.55s3.58.19,3.79.17c2.89-.37,5.09-1.96,6.64-3.59s2.45-3.3,2.74-3.83c1.55-2.87,2.4-6.4,2.44-9.77s-.74-6.58-2.44-8.79c-1.35-1.77-3.12-2.69-4.77-3.17s-3.2-.53-4.1-.54c-5.44-.1-17.66-.18-34.98-.2s-39.74.03-65.6.2h0Z"/>
  <path class="cls-3" d="m579.23,249.56v-4.78h54.54c.59.08,2.4.36,4.55,1.39s4.63,2.82,6.59,5.92c2.11,3.34,3.05,7.35,2.99,11.31s-1.11,7.85-2.99,10.97c-1.79,2.97-4.45,5.42-7.28,6.83s-5.85,1.78-8.35.6c-.79-.37-1.44-.86-1.94-1.32s-.87-.91-1.11-1.2c-2.25-2.75-2.8-6.23-2.72-9.14.08-2.91.79-5.25,1.05-5.71.21-.38.5-.54.8-.53s.62.2.87.53c.62.79.51,2.72.51,4.88s.11,4.55,1.16,6.26c.67,1.09,1.63,1.7,2.51,2.05s1.67.43,2,.47c2.75.3,5.05-1.46,6.69-3.34s2.6-3.89,2.69-4.08c.97-2.08,1.61-4.63,1.69-7.24s-.41-5.29-1.69-7.61c-1.04-1.88-2.42-3.2-3.61-4.09s-2.21-1.33-2.5-1.45c0,0-.29-.12-.75-.27s-1.07-.32-1.71-.42c-2.75-.43-14.88-.45-27.01-.36s-24.24.31-26.96.36h0Z"/>
  <g>
    <path class="cls-1" d="m506.3,415.97l-116.79.18-116.79.18s2.78-18.57,11.6-42.7,23.67-53.84,47.81-76.12v-48.27s-33.42-45.49-44.56-97.94c-11.14-52.45,0-111.86,89.12-139.71,0,0,19.68-3.71,43.96-5.57s53.15-1.86,71.53,5.57c18.38,7.43,23.85,15.78,24.74,22.28.88,6.5-2.83,11.14-2.83,11.14,0,0,3.71,5.57,7.43,13.92,3.71,8.35,7.43,19.49,7.43,30.63v47.63s6.5,7.59,13,16.1,13,17.96,13,21.67-5.57,10.21-11.14,15.78c-5.57,5.57-11.14,10.21-11.14,10.21,0,0,.93,2.78,1.86,6.03s1.86,6.96,1.86,8.82c0,0-3.71,0-8.35.93s-10.21,2.78-13.92,6.5c-3.71,3.71,0,8.35,4.64,12.07s10.21,6.5,10.21,6.5c0,0,.93,13-6.5,24.6-7.43,11.6-23.21,21.82-56.63,16.25v33.42s13.83,21.26,25.81,44.38,22.1,48.1,14.67,55.52h0Z"/>
    <path class="cls-2" d="m332.15,297.5c4.63,1.15,9.25,2.3,13.88,3.46s9.25,2.3,13.88,3.46c14.09,3.51,28.35,6.21,42.73,8.1,14.37,1.89,28.85,2.96,43.37,3.21,3.3.06,6.61.11,9.91.17s6.61.11,9.91.17"/>
  </g>
</svg>