<?xml version="1.0" encoding="UTF-8"?><svg id="Layer_2" xmlns="http://www.w3.org/2000/svg" width="507.2419487" height="423.0366376" viewBox="0 0 507.2419487 423.0366376"><defs><style>.cls-1{stroke-width:12px;}.cls-1,.cls-2{fill:none;stroke:#e5978a;stroke-miterlimit:10;}.cls-2{stroke-width:8px;}.cls-3{fill:#77b6ea;stroke-width:0px;}</style></defs><path class="cls-1" d="m241.0834806,416.7792091l-116.7852887.1758847-116.7852887.1758847s2.7849794-18.5665292,11.6040808-42.7030172,23.6723247-53.8429347,47.8088127-76.1227697v-48.2729759s-33.4197526-45.4879966-44.5596701-97.9384416c-11.1399175-52.450445,0-111.8633385,89.1193402-139.7131323,0,0,19.6826016-3.7133058,43.9598991-5.5699588s53.1492907-1.8566529,71.5280739,5.5699588,23.854869,15.7815498,24.736259,22.279835c.88139,6.4982852-2.8319159,11.1399175-2.8319159,11.1399175,0,0,3.7133058,5.5699588,7.4266117,13.9248969s7.4266117,19.4948557,7.4266117,30.6347732v47.6319915s6.4982852,7.5868578,12.9965704,16.1020421c6.4982852,8.5151843,12.9965704,17.958695,12.9965704,21.6720008s-5.5699588,10.2115911-11.1399175,15.7815498c-5.5699588,5.5699588-11.1399175,10.2115911-11.1399175,10.2115911,0,0,.9283265,2.7849794,1.8566529,6.034122s1.8566529,6.9624485,1.8566529,8.8191014c0,0-3.7133058,0-8.3549381.9283265s-10.2115911,2.7849794-13.9248969,6.4982852c-3.7133058,3.7133058,0,8.3549381,4.6416323,12.068244s10.2115911,6.4982852,10.2115911,6.4982852c0,0,.9283265,12.9965704-6.4982852,24.6006512s-23.2081615,21.8156718-56.6279141,16.2457131v33.4197526s13.8329742,21.2635663,25.8092955,44.3837854c11.9763213,23.1202192,22.0959897,48.0970913,14.669378,55.523703Z"/><path class="cls-3" d="m303.220268,208.3132548v4.7847569h101.6448662c3.238909-.3150893,6.2319415-1.6722087,8.6757957-3.7984171s4.3385301-5.0215059,5.3807259-8.4129515c1.4802215-4.8167701.824519-9.27927-.2642707-12.6271437s-2.6106666-5.5811209-2.8627938-5.9393856c-3.1692448-4.5034372-7.9838057-7.0618594-12.7258395-7.6793744s-9.4115405.7058771-12.2906767,3.9660686c-1.9167203,2.1703541-3.209755,5.3917897-3.7679753,8.3165719s-.3816263,5.552911.6409108,6.5366515c.3907876.3759711.9346457.5401167,1.4997609.5281967s1.1514875-.1999055,1.6273037-.5281967c1.3236202-.9132831,1.4650481-2.6872541,1.59574-4.7384085s.250648-4.3794923,1.5313245-6.401509c1.4110344-2.2277795,3.6519796-3.1694779,5.5923429-3.5475454s3.5801444-.1925042,3.7888508-.1657604c2.8899199.3703617,5.0910229,1.9607242,6.6417436,3.5916415s2.4510592,3.3023894,2.73945,3.8349702c1.5542755,2.8701402,2.4020318,6.4028122,2.4373411,9.7724293s-.7418285,6.5761793-2.4373411,8.7940999c-1.3508178,1.7669876-3.1170921,2.6873957-4.7715457,3.1700162s-3.1970866.5274531-4.100622.5432897c-5.4408709.095388-17.6564916.1782683-34.9759706.1958614-17.319479.0175931-39.7428163-.0301009-65.5991204-.1958614Z"/><path class="cls-3" d="m301.6324334,225.1061333v4.7847569h151.3622697c4.8231518-.3150893,9.2801618-1.6722087,12.9193748-3.7984171,3.639213-2.1262084,6.4606289-5.0215059,8.0125924-8.4129515,2.2042401-4.8167701,1.2278147-9.27927-.3935331-12.6271437s-3.8876181-5.5811209-4.2630679-5.9393856c-4.7194128-4.5034372-11.8889128-7.0618594-18.9504107-7.6793744-7.0614978-.617515-14.0149934.7058771-18.3023973,3.9660686-2.8542429,2.1703541-4.7797377,5.3917897-5.6109996,8.3165719s-.5682906,5.552911.9543986,6.5366515c.581933.3759711,1.3918076.5401167,2.2333367.5281967s1.7147129-.1999055,2.4232643-.5281967c1.9710405-.9132831,2.1816449-2.6872541,2.376262-4.7384085s.3732471-4.3794923,2.280339-6.401509c2.1012116-2.2277795,5.4382671-3.1694779,8.3277173-3.5475454s5.3312951-.1925042,5.6420857-.1657604c4.3034622.3703617,7.5811874,1.9607242,9.8904099,3.5916415s3.6499421,3.3023894,4.0793931,3.8349702c2.314516,2.8701402,3.5769341,6.4028122,3.6295141,9.7724293s-1.104678,6.5761793-3.6295141,8.7940999c-2.0115414,1.7669876-4.6417507,2.6873957-7.1054448,3.1700162s-4.7608729.5274531-6.1063532.5432897c-8.102156.095388-26.2927853.1782683-52.0837155.1958614s-59.1821615-.0301009-97.6855215-.1958614Z"/><path class="cls-3" d="m389.5210879,245.3317814v-2.3923784c0-.7974548,0-1.5949095,0-2.3923784h50.8224331s50.8224331,0,50.8224331,0c3.238909.3150893,6.2319415,1.6722087,8.6757957,3.7984171s4.3385301,5.0215059,5.3807259,8.4129515c1.4802215,4.8167701.824519,9.27927-.2642707,12.6271437s-2.6106666,5.5811209-2.8627938,5.9393856c-3.1692448,4.5034372-7.9838057,7.0618594-12.7258395,7.6793744s-9.4115405-.7058771-12.2906767-3.9660686c-1.9167203-2.1703541-3.209755-5.3917897-3.7679753-8.3165719s-.3816263-5.552911.6409108-6.5366515c.3907876-.3759711.9346457-.5401167,1.4997609-.5281967s1.1514875.1999055,1.6273037.5281967c1.3236202.9132831,1.4650481,2.6872541,1.59574,4.7384085s.250648,4.3794923,1.5313245,6.401509c1.4110344,2.2277795,3.6519796,3.1694779,5.5923428,3.5475454s3.5801444.1925042,3.7888508.1657604c2.8899199-.3703617,5.0910229-1.9607242,6.6417436-3.5916415s2.4510592-3.3023894,2.73945-3.8349702c1.5542755-2.8701402,2.4020318-6.4028122,2.4373411-9.7724293s-.7418285-6.5761793-2.4373411-8.7940999c-1.3508178-1.7669876-3.1170921-2.6873957-4.7715457-3.1700162s-3.1970866-.5274531-4.100622-.5432897c-5.4408709-.095388-17.6564916-.1782683-34.9759706-.1958614s-39.7428163.0301009-65.5991204.1958613Z"/><path class="cls-3" d="m315.7285261,246.6381679v-4.7847569h54.5373491c.5930047.0794098,2.3992643.3567207,4.5455187,1.3887997s4.6325035,2.8189261,6.5854874,5.9174083c2.107772,3.3439357,3.0504816,7.352528,2.9948934,11.3058196s-1.1094743,7.8512825-2.9948934,10.9740154c-1.7945694,2.9722992-4.450637,5.4213665-7.2844438,6.8311518s-5.8453528,1.7802887-8.3508789.5954599c-.7920726-.3745829-1.4356078-.8582657-1.9411266-1.3216428s-.8730215-.9064484-1.113029-1.1998084c-2.25254-2.7529945-2.801599-6.2338646-2.7227019-9.1427039.0788971-2.9088393.7857504-5.2456479,1.0450348-5.7105194.2096607-.3759711.5014392-.5401167.8046217-.5281967s.6177689.1999055.8730453.5281967c.6164806.7927661.5108868,2.7226244.513702,4.8818518s.1140394,4.5478237,1.1641559,6.2580657c.6699217,1.0911406,1.6315265,1.7038961,2.5077687,2.0526701s1.667122.4335665,1.9955936.4687811c2.7537407.2952581,5.0526599-1.4623805,6.6863335-3.3433408s2.6021017-3.8852423,2.6948601-4.0832709c.9720544-2.0750227,1.6117724-4.6280054,1.6886177-7.2423941s-.4091819-5.2901831-1.6886177-7.6108293c-1.0383786-1.88334-2.4184935-3.2048907-3.6137836-4.0871734s-2.2057552-1.3252974-2.5048342-1.4515654c-.0001909-.0000567-.2949278-.1244832-.7496538-.2736846s-1.0694412-.3231776-1.7095885-.4223336c-2.7509732-.426144-14.8821857-.4506072-27.0054774-.3563028-12.1232918.0943044-24.2386628.3073764-26.9579531.3563028Z"/><path class="cls-2" d="m66.9258268,298.3052101c4.6257636,1.1521249,9.2515296,2.3042521,13.877297,3.4563808s9.2515363,2.3042588,13.8773057,3.4563894c14.0887689,3.50906,28.3540165,6.212395,42.7263328,8.1008851s28.8517015,2.9621355,43.3687457,3.2118161c3.304879.0568411,6.609758.1136827,9.9146369.1705254s6.609758.1136863,9.9146369.1705315"/></svg>