<?xml version="1.0" encoding="UTF-8"?><svg id="Layer_1" xmlns="http://www.w3.org/2000/svg" width="100" height="100" viewBox="0 0 100 100"><defs><style>.cls-1{fill:#005185;stroke-width:0px;}</style></defs><path class="cls-1" d="m1.147,100s-8.941-21.901,23.106-44.9c0,0,48.614-27.783,18.178-55.1,0,0,33.44,15.413,12.075,42.971,0,0-3.149,6.34-30.084,23.97,0,0-18.876,13.719-23.275,33.059Z"/><path class="cls-1" d="m13.185,86.166s2.644-11.266,23.008-24.158c20.363-12.893,22.434-17.315,25.593-26.646,0,0,1.03,13.038-15.47,24.393-16.5,11.354-28.523,16.118-33.131,26.412Z"/><path class="cls-1" d="m37.642,38.121s10.119-23.681-1.694-37.38c0,0,19.638,8.22,1.694,37.38Z"/><path class="cls-1" d="m99.813,99.951s2.998-11.685-15.028-21.671c0,0-26.836-11.518-13.242-27.156,0,0-15.984,9.72-3.089,22.625,0,0,2.064,3.066,17.093,10.591,0,0,10.63,5.97,14.266,15.611Z"/></svg>