<?xml version="1.0" encoding="UTF-8"?><svg id="Layer_1" xmlns="http://www.w3.org/2000/svg" width="355.431" height="98.86" viewBox="0 0 355.431 98.86"><defs><style>.cls-1{fill:#005185;stroke-width:0px;}</style></defs><path class="cls-1" d="m147.423,74.848c-.492,1.228-.583,2.27-.276,3.128.306.859.828,1.518,1.564,1.978.736.46,1.472.69,2.208.69h.828v.92h-19.688v-.92h.828c1.412,0,2.866-.444,4.37-1.334,1.502-.889,2.744-2.376,3.726-4.462h6.44Zm19.78-59.524l.368,11.224-22.816,54.74h-6.716l23.828-53.912c.184-.368.506-1.058.966-2.07.46-1.012.95-2.162,1.472-3.45.521-1.288.996-2.53,1.426-3.726.428-1.196.644-2.13.644-2.806h.828Zm9.66,44.344v3.864h-27.048v-3.864h27.048Zm-9.66-44.344l30.084,65.688h-16.56l-19.136-47.932,5.612-17.756Zm11.04,59.524h16.1c1.042,2.085,2.3,3.573,3.772,4.462,1.472.89,2.913,1.334,4.324,1.334h.736v.92h-29.256v-.92h.828c1.227,0,2.3-.506,3.22-1.518s1.012-2.438.276-4.278Z"/><path class="cls-1" d="m210.626,32.068h-.184c-.062-1.41-.568-2.56-1.518-3.45-.952-.889-2.07-1.334-3.358-1.334h-1.196v-.92h6.624l-.368,5.704Zm0,43.7l.368,5.796h-6.624v-.92h1.104c1.349,0,2.499-.475,3.45-1.426s1.456-2.1,1.518-3.45h.184Zm13.064-49.404v55.2h-13.34V26.363h13.34Zm9.016,0c2.514,0,4.968.262,7.36.782,2.392.522,4.539,1.35,6.44,2.484,1.9,1.136,3.418,2.668,4.554,4.6,1.134,1.932,1.702,4.34,1.702,7.222,0,2.147-.446,4.278-1.334,6.394-.89,2.116-2.27,3.941-4.14,5.474-1.872,1.534-4.31,2.546-7.314,3.036,1.778.552,3.48,1.626,5.106,3.22,1.625,1.595,2.898,3.098,3.818,4.508.245.492.674,1.273,1.288,2.346.612,1.074,1.395,2.3,2.346,3.68.95,1.38,1.946,2.806,2.989,4.278,1.227,1.656,2.301,2.929,3.221,3.818.92.89,1.871,1.518,2.852,1.886.98.368,2.117.552,3.404.552v.92h-7.729c-3.312,0-6.117-.244-8.417-.736-2.3-.49-4.294-1.395-5.98-2.714-1.688-1.318-3.236-3.112-4.646-5.382-.552-.796-1.136-1.762-1.748-2.898-.614-1.134-1.228-2.284-1.84-3.45-.614-1.164-1.15-2.3-1.61-3.404s-.782-2.024-.966-2.76c-.798-1.962-1.702-3.388-2.714-4.278-1.012-.888-1.948-1.334-2.806-1.334v-.828h2.3c1.288,0,2.56-.23,3.818-.69,1.256-.46,2.406-1.348,3.45-2.668,1.042-1.318,1.808-3.266,2.3-5.842.122-.368.23-.889.322-1.564.092-.674.106-1.44.046-2.3-.124-2.268-.538-4.094-1.242-5.474-.706-1.38-1.58-2.422-2.622-3.128-1.043-.704-2.102-1.196-3.174-1.472-1.074-.276-2.01-.414-2.806-.414-1.166-.061-2.224-.076-3.174-.046-.952.031-1.672.016-2.162-.046-.062,0-.154-.322-.276-.966-.124-.644-.308-1.578-.552-2.806h9.936Zm-9.2,49.404h.184c0,1.534.537,2.729,1.61,3.588,1.072.86,2.222,1.288,3.45,1.288h.92v.92h-6.624l.46-5.796Z"/><path class="cls-1" d="m270.977,32.16h-.275c0-1.41-.522-2.576-1.564-3.496-1.044-.92-2.27-1.38-3.68-1.38h-1.196v-.92h6.716v5.796Zm0,43.608v5.796h-6.716v-.92h1.196c1.41,0,2.636-.475,3.68-1.426,1.042-.95,1.564-2.1,1.564-3.45h.275Zm12.973-49.404v55.2h-13.248V26.363h13.248Zm-.185,5.796v-5.796h6.624l-.092.92h-1.012c-1.473,0-2.714.46-3.727,1.38-1.012.92-1.55,2.086-1.609,3.496h-.185Zm0,43.608h.185c.06,1.35.598,2.5,1.609,3.45,1.013.952,2.254,1.426,3.727,1.426h1.104v.92h-6.624v-5.796Z"/><path class="cls-1" d="m305.568,75.492c-.676,1.656-.583,2.929.276,3.818.858.89,1.809,1.334,2.852,1.334h.736v.92h-18.4v-.92h.736c1.228,0,2.515-.382,3.864-1.15,1.349-.767,2.452-2.101,3.312-4.002h6.624Zm17.296-51.612l.185,11.04-19.964,46.368h-6.809l21.528-46.276c.122-.368.398-1.027.828-1.978.428-.95.888-2.024,1.38-3.22.49-1.196.95-2.33,1.38-3.404.429-1.073.674-1.917.736-2.53h.735Zm8.004,39.652v3.588h-23.46v-3.588h23.46Zm-8.004-39.652l27.232,57.224h-15.548l-17.112-40.388,5.428-16.836Zm9.385,51.612h15.18c.92,1.901,2.054,3.235,3.404,4.002,1.348.768,2.636,1.15,3.863,1.15h.736v.92h-27.048v-.92h.735c1.043,0,1.993-.444,2.853-1.334.858-.889.95-2.162.276-3.818Z"/><path class="cls-1" d="m1.147,98.908s-8.941-21.662,23.106-44.41c0,0,48.614-27.48,18.178-54.499,0,0,33.44,15.244,12.075,42.502,0,0-3.149,6.271-30.084,23.709,0,0-18.876,13.569-23.275,32.698Z"/><path class="cls-1" d="m13.185,85.225s2.644-11.143,23.008-23.894c20.363-12.752,22.434-17.126,25.593-26.355,0,0,1.03,12.896-15.47,24.126-16.5,11.231-28.523,15.942-33.131,26.123Z"/><path class="cls-1" d="m37.642,37.705s10.119-23.423-1.694-36.972c0,0,19.638,8.13,1.694,36.972Z"/><path class="cls-1" d="m99.813,98.86s2.998-11.558-15.028-21.435c0,0-26.836-11.392-13.242-26.86,0,0-15.984,9.614-3.089,22.378,0,0,2.064,3.033,17.093,10.475,0,0,10.63,5.905,14.266,15.441Z"/></svg>