<?xml version="1.0" encoding="UTF-8"?><svg id="Layer_1" xmlns="http://www.w3.org/2000/svg" width="379.783" height="113.028" viewBox="0 0 379.783 113.028"><defs><style>.cls-1{fill:#005185;stroke-width:0px;}</style></defs><path class="cls-1" d="m153.687,87.969c-.534,1.334-.634,2.467-.3,3.4.333.934.9,1.65,1.7,2.15.8.5,1.6.75,2.4.75h.9v1h-21.4v-1h.9c1.534,0,3.116-.483,4.75-1.45,1.633-.965,2.983-2.583,4.05-4.85h7Zm21.5-64.7l.4,12.2-24.8,59.5h-7.3l25.9-58.6c.2-.4.55-1.15,1.05-2.25s1.033-2.35,1.6-3.75c.565-1.4,1.083-2.75,1.55-4.05.466-1.3.7-2.315.7-3.05h.9Zm10.5,48.2v4.2h-29.4v-4.2h29.4Zm-10.5-48.2l32.7,71.4h-18l-20.8-52.1,6.1-19.3Zm12,64.7h17.5c1.133,2.267,2.5,3.884,4.1,4.85,1.6.967,3.166,1.45,4.7,1.45h.8v1h-31.8v-1h.9c1.333,0,2.5-.55,3.5-1.65s1.1-2.65.3-4.65Z"/><path class="cls-1" d="m222.387,41.469h-.2c-.067-1.533-.617-2.783-1.65-3.75-1.034-.966-2.25-1.45-3.65-1.45h-1.3v-1h7.2l-.4,6.2Zm0,47.5l.4,6.3h-7.2v-1h1.2c1.466,0,2.716-.516,3.75-1.55s1.583-2.283,1.65-3.75h.2Zm14.2-53.7v60h-14.5v-60h14.5Zm9.8,0c2.733,0,5.4.284,8,.85,2.6.567,4.933,1.467,7,2.7,2.066,1.234,3.715,2.9,4.949,5,1.234,2.1,1.852,4.717,1.852,7.85,0,2.334-.484,4.65-1.451,6.95-.967,2.3-2.467,4.284-4.5,5.95-2.034,1.667-4.684,2.768-7.95,3.3,1.933.6,3.783,1.767,5.55,3.5,1.765,1.734,3.149,3.367,4.149,4.9.266.534.732,1.384,1.4,2.55.666,1.167,1.516,2.5,2.551,4,1.031,1.5,2.115,3.05,3.25,4.65,1.332,1.8,2.5,3.184,3.5,4.15,1,.967,2.031,1.65,3.1,2.05,1.064.4,2.299.6,3.699.6v1h-8.4c-3.6,0-6.648-.266-9.148-.8-2.5-.533-4.668-1.516-6.5-2.95-1.834-1.433-3.518-3.383-5.05-5.85-.6-.866-1.234-1.916-1.9-3.15-.667-1.233-1.334-2.483-2-3.75-.667-1.266-1.25-2.5-1.75-3.7-.5-1.2-.85-2.2-1.05-3-.867-2.133-1.85-3.683-2.95-4.65-1.1-.965-2.117-1.45-3.05-1.45v-.9h2.5c1.4,0,2.783-.25,4.15-.75,1.366-.5,2.616-1.465,3.75-2.9,1.133-1.433,1.965-3.55,2.5-6.35.133-.4.25-.965.35-1.7.1-.733.115-1.566.05-2.5-.134-2.466-.584-4.45-1.35-5.95-.767-1.5-1.717-2.633-2.85-3.4-1.134-.766-2.284-1.3-3.45-1.6-1.167-.3-2.185-.45-3.05-.45-1.267-.066-2.417-.083-3.45-.05-1.035.035-1.817.017-2.35-.05-.067,0-.167-.35-.3-1.05-.135-.7-.334-1.715-.6-3.05h10.8Zm-10,53.7h.2c0,1.667.583,2.967,1.75,3.9,1.166.934,2.416,1.4,3.75,1.4h1v1h-7.2l.5-6.3Z"/><path class="cls-1" d="m287.985,41.569h-.3c0-1.533-.567-2.8-1.7-3.8-1.135-1-2.468-1.5-4-1.5h-1.3v-1h7.3v6.3Zm0,47.4v6.3h-7.3v-1h1.3c1.532,0,2.865-.516,4-1.55,1.133-1.033,1.7-2.283,1.7-3.75h.3Zm14.1-53.7v60h-14.399v-60h14.399Zm-.2,6.3v-6.3h7.2l-.1,1h-1.101c-1.6,0-2.949.5-4.05,1.5-1.1,1-1.685,2.267-1.75,3.8h-.2Zm0,47.4h.2c.065,1.467.65,2.717,1.75,3.75,1.101,1.034,2.45,1.55,4.05,1.55h1.2v1h-7.2v-6.3Z"/><path class="cls-1" d="m325.584,88.669c-.734,1.8-.634,3.185.301,4.15.933.967,1.965,1.45,3.1,1.45h.8v1h-20v-1h.8c1.335,0,2.733-.416,4.2-1.25,1.466-.833,2.666-2.283,3.601-4.35h7.199Zm18.801-56.1l.199,12-21.699,50.4h-7.4l23.4-50.3c.133-.4.433-1.116.899-2.15.466-1.033.966-2.2,1.5-3.5.533-1.3,1.033-2.533,1.5-3.7.466-1.166.733-2.083.8-2.75h.801Zm8.699,43.1v3.9h-25.5v-3.9h25.5Zm-8.699-43.1l29.6,62.2h-16.9l-18.6-43.9,5.9-18.3Zm10.199,56.1h16.5c1,2.067,2.233,3.517,3.7,4.35,1.466.834,2.866,1.25,4.2,1.25h.8v1h-29.399v-1h.8c1.133,0,2.165-.483,3.1-1.45.933-.965,1.033-2.35.3-4.15Z"/><path class="cls-1" d="m1.137,113.028s-8.86-24.754,22.897-50.749c0,0,48.175-31.403,18.014-62.279,0,0,33.138,17.421,11.966,48.569,0,0-3.121,7.166-29.812,27.093,0,0-18.706,15.506-23.065,37.366Z"/><path class="cls-1" d="m13.066,97.391s2.62-12.733,22.8-27.305c20.179-14.572,22.231-19.571,25.362-30.118,0,0,1.02,14.737-15.33,27.57-16.351,12.834-28.265,18.217-32.831,29.852Z"/><path class="cls-1" d="m37.302,43.088s10.028-26.766-1.679-42.25c0,0,19.461,9.291,1.679,42.25Z"/><path class="cls-1" d="m98.911,112.973s2.971-13.207-14.892-24.495c0,0-26.594-13.018-13.122-30.694,0,0-15.839,10.986-3.061,25.573,0,0,2.046,3.466,16.938,11.971,0,0,10.534,6.748,14.137,17.645Z"/></svg>