<?xml version="1.0" encoding="UTF-8"?><svg id="Layer_2" xmlns="http://www.w3.org/2000/svg" width="798.86" height="243.13" viewBox="0 0 798.86 243.13"><defs><style>.cls-1{fill:#005185;stroke-width:0px;}</style></defs><path class="cls-1" d="m600.56,88.6h-.25c-.08-2.01-.77-3.66-2.06-4.97-1.29-1.31-2.85-1.96-4.68-1.96h-1.62v-1.31h9.48l-.87,8.25Zm0,62.04l.87,8.25h-9.48v-1.31h1.5c1.91,0,3.51-.67,4.8-2.03,1.29-1.35,1.97-2.99,2.06-4.91h.25Zm14.34-70.28v78.53h-14.72v-78.53h14.72Zm12.97,0c3.66,0,7.09.39,10.29,1.18,3.2.79,6.03,2.03,8.48,3.73,2.45,1.7,4.37,3.91,5.74,6.61,1.37,2.71,2.06,5.98,2.06,9.82,0,3.23-.67,6.39-2,9.49-1.33,3.1-3.33,5.72-5.99,7.85-2.66,2.14-5.99,3.47-9.98,3.99,2.08.7,4.18,2.18,6.3,4.45,2.12,2.27,3.76,4.41,4.93,6.41.25.44.85,1.42,1.81,2.94.96,1.53,2.14,3.32,3.55,5.37,1.41,2.05,2.87,4.08,4.37,6.09,1.66,2.27,3.16,4.08,4.49,5.43,1.33,1.35,2.72,2.33,4.18,2.94,1.45.61,3.1.92,4.93.92v1.31h-8.23c-4.49,0-8.27-.44-11.35-1.31-3.08-.87-5.67-2.23-7.79-4.06-2.12-1.83-4.05-4.1-5.8-6.81-.58-.96-1.35-2.27-2.31-3.93-.96-1.66-1.93-3.38-2.93-5.17-1-1.79-1.91-3.49-2.74-5.1-.83-1.61-1.37-2.86-1.62-3.73-1.25-2.62-2.7-4.62-4.37-6.02-1.66-1.4-3.29-2.14-4.86-2.23v-1.18c.08,0,.54.02,1.37.07.83.04,1.87.02,3.12-.07,1.91-.09,3.85-.39,5.8-.92,1.95-.52,3.72-1.66,5.3-3.4,1.58-1.74,2.79-4.45,3.62-8.11.25-.7.44-1.57.56-2.62.12-1.05.14-2.22.06-3.53-.08-2.96-.58-5.43-1.5-7.39-.92-1.96-2.08-3.51-3.49-4.65-1.42-1.13-2.95-1.96-4.62-2.49-1.66-.52-3.24-.83-4.74-.92-2.41-.09-4.53-.11-6.36-.07-1.83.04-2.95.07-3.37.07-.08-.09-.21-.52-.37-1.31-.17-.79-.42-2.01-.75-3.66h14.22Zm-13.22,70.28h.25c.08,2.01.83,3.66,2.25,4.97,1.41,1.31,2.99,1.96,4.74,1.96h1.37l.12,1.31h-9.6l.87-8.25Z"/><path class="cls-1" d="m684.25,88.6h-.37c0-2.01-.75-3.66-2.25-4.97-1.5-1.31-3.29-1.96-5.36-1.96h-1.62v-1.31h9.6v8.25Zm0,62.04v8.25h-9.6v-1.31h1.62c2.08,0,3.87-.67,5.36-2.03,1.5-1.35,2.25-2.99,2.25-4.91h.37Zm14.22-70.28v78.53h-14.59v-78.53h14.59Zm-.37,8.25v-8.25h9.6l-.12,1.31h-1.37c-2.16,0-3.97.65-5.43,1.96-1.46,1.31-2.23,2.97-2.31,4.97h-.37Zm0,62.04h.37c.08,1.92.85,3.56,2.31,4.91,1.45,1.35,3.26,2.03,5.43,2.03h1.5v1.31h-9.6v-8.25Z"/><path class="cls-1" d="m732.15,149.98c-.92,2.44-.79,4.32.37,5.63,1.16,1.31,2.45,1.96,3.87,1.96h1v1.31h-24.57v-1.31h1c1.75,0,3.53-.59,5.36-1.77,1.83-1.18,3.33-3.12,4.49-5.82h8.48Zm23.7-72.64l.37,13.48-27.56,67.66h-8.73l29.31-66.09c.08-.35.39-1.13.94-2.36.54-1.22,1.14-2.66,1.81-4.32.66-1.66,1.27-3.25,1.81-4.78.54-1.53.85-2.73.93-3.6h1.12Zm12.1,54.31v4.71h-32.3v-4.71h32.3Zm-12.1-54.31l36.05,80.75h-17.34l-24.32-60.86,5.61-19.89Zm15.47,72.64h16.96c1.16,2.71,2.66,4.65,4.49,5.82,1.83,1.18,3.57,1.77,5.24,1.77h1v1.31h-32.93v-1.31h1c1.41,0,2.7-.65,3.87-1.96,1.16-1.31,1.29-3.18.37-5.63Z"/><path class="cls-1" d="m263.53,125.48c2.85-1.67,6.32-3.54,10.35-5.37,22.23-10.14,42.22-11.1,51.48-10.29,2.75.24,6.79.59,11.69.98,4.23.34,28.17,2.3,38.49,2.69,22.51.85,52.18,1.98,66.78-16.58,5.41-6.88,7.26-14.58,8.01-19.32,0,0-.02-.23-.12-.26-.25-.07-.77,1.27-.83,1.4-.53,1.28-9.63,17.99-25.98,24.61-4.73,1.92-9.91,2.52-20.26,3.71,0,0-5.84.68-12.25.94-11.77.49-35.03-.58-64.9-3.62,0,0-20.04-.88-40.38,5.67-3.32.97-7.21,2.4-11.36,4.58-6.55,3.43-11.46,7.51-14.89,10.85-1.16,1.13-7.33,7.09-7.33,7.21,0,.07.03.13.03.13s.01.04.03.07c.03.05,3.15-1.96,11.41-7.41Z"/><path class="cls-1" d="m412.89,88.07c.52.82-4.16,6.9-11.08,8.8-8.33,2.29-16.6-2.41-16.41-3.42.16-.87,6.47,1.37,15.65-.85,7.43-1.8,11.4-5.22,11.84-4.53Z"/><path class="cls-1" d="m251.28,146.27c-.05.81,20.6,1.92,57.68,7.16,26.46,3.74,37.12,6.17,47.91,9.65,16.18,5.21,26.75,10.47,32.83,13.86,8.68,4.85,15.36,9.64,19.14,12.5,8.89,6.72,11.95,10.42,17.77,15.29,10.5,8.78,20,12.98,31.45,18.05,15.94,7.05,33.85,14.74,54.75,12.42,9.41-1.04,15.08-3.64,19.41-7.55,5.37-4.85,7.67-10.83,8.69-14.37-1.22,1.88-3.22,4.57-6.23,7.12-15.87,13.47-40.58,7.04-53.34,3.71-21.68-5.65-36.72-16.43-46.51-23.59-14.91-10.9-12.96-13.15-25.97-22.24-18.8-13.14-36.5-17.91-51.99-22.18-18.41-5.08-32.23-6.21-53.39-8.24-27.93-2.68-52.16-2.48-52.21-1.6Z"/><path class="cls-1" d="m444.36,183.82s41,39.92,68.4,29.25c2.28-.89,10.1-3.81,12.97-11.01,4.1-10.28-3.24-25.76-14.86-28.86-5.32-1.42-12.37-.41-17.16,3.89-11.82,10.63,4.79,20.68,4.79,20.68-3.16-7.1-.62-14.14,3.73-16.04,4.06-1.77,9,1.22,11.48,4.05,3.9,4.45,4.17,11.31,1.35,15.54-3.49,5.23-11.02,5.38-16.21,5.4-21.74.12-43.23-14.22-54.5-22.9Z"/><path class="cls-1" d="m483.84,170.67c-.57-.78,3.68-7.17,10.45-9.54,8.16-2.85,16.72,1.27,16.6,2.29-.1.88-6.55-.92-15.56,1.92-7.29,2.3-11.01,5.99-11.5,5.33Z"/><path class="cls-1" d="m309.43,164.13c9.14-.66,39.39-1.72,69.23,18.39,31.22,21.04,41.3,51.31,43.82,59.83-5.21-11.11-18.52-35.6-46.59-54.8-27.35-18.7-54.23-22.47-66.46-23.43Z"/><path class="cls-1" d="m51.6,24.71c-9.79-.57-21.88,10.5-21.83,22.58.04,8.6,6.23,14.56,9.03,17.31,8.93,8.74,20.03,9.64,23.34,9.79,14.4.64,25.44-4.27,30.11-6.77,8.93-4.79,9.23-7.93,17.31-12.8,11.99-7.22,23.89-7.86,31.62-8.28,19.24-1.04,55.69,3.5,62.48,22.58,3.98,11.18-4.91,19.81,1.51,33.12,3.33,6.92,8.89,11.15,12.8,13.55,3.1,1.25,5.9,1.91,8.28,2.26,3.29.48,5.55.33,6.02,1.51.44,1.1-1.3,1.92-2.26,4.52-1.12,3.03-.74,7.29,1.51,9.03,1.96,1.52,4.32.31,5.04,1.53.45.78.16,2.41-3.31,6.21,0,0,5.96,3.09,3.31,8.82,0,0-7.94,2.43-2.65,14.35,2.27,5.11,1.3,8.29.86,9.27-.75,1.65-3.23,4.7-26.59,5.74-12.39.55-13.73-.21-17.31,1.51-5.68,2.73-8.28,7.51-14.3,19.57-5.44,10.89-9.99,20.34-13.55,27.85,1.57,4.6,3.83,9.97,6.02,9.79,2.7-.23,3.07-8.71,6.02-18.07,2.24-7.11,7.77-24.64,20.32-30.86,12.6-6.25,24.26,2.88,39.14-4.52,5.34-2.65,7.08-5.44,7.76-7.53,1.17-3.62-.07-7.6-.98-10.54-1.57-5.06-3.25-5.76-3.01-9.03.17-2.33,1.3-5.77,3.76-6.77.93-.38,2.12.1,3.01-.75,0,0,.55-.53.75-1.51.61-2.96-5.02-8.06-5.27-8.28,0,0,4.79-5.55,3.76-9.03,0,0-.25-.76-.75-2.26-3.14.48-3.53.57-3.99.29-.91-.56-.9-1.84-1.28-5.55,3.13-8.71,3.99-11.64,2.84-12.55-.4-.31-.89-.27-1.34-.24-6.86.4-15.05-3.01-15.05-3.01,0,0-7.02-4.44-9.79-9.79-2.57-4.98.08-7.77,0-18.07-.05-6.46-.08-11.13-2.26-15.81-5.76-12.38-23.34-18.07-23.34-18.07-1.62-.09-51.78-16.96-86.68,2.35-5.23,2.89-16.63,14.35-33.76,15.72-12.1.96-18.17-3.43-19.57-4.52-5.39-4.16-10.44-12.15-8.54-19.95.18-.74,1.8-6.77,7.04-9.41,5.86-2.96,12.48.24,12.8-.75.26-.83-3.97-4.22-9.03-4.52Z"/><path class="cls-1" d="m121.46,75.52s.36,5.72-1.21,8.11c-4.47-.1-9.41.05-14.74.64-11.32,1.24-20.87,4.04-28.29,6.89-4.14,1.91-45.9,20.71-66.38,5.08-3.15-2.4-9.42-7.19-10.14-15.04-.82-8.94,6.19-15.67,7.56-16.94,1.41-.91,4.05-2.33,7.65-2.73,5.2-.59,9.18,1.31,10.68,2.12,0,0,7.19,4.75,2.15,15.97,0,0-3.22,3.65-12.54,1.36,4.32-1.43,6.63-4.94,6.04-7.76-.33-1.56-1.6-3.25-3.22-3.52-3.45-.58-8.48,5.22-8.35,10.47.14,5.22,5.4,10.4,13.04,11.5,4.57.88,11.17,1.63,19,.7,9.23-1.09,16.39-4.05,20.87-6.34,7.12-2.9,13.21-4.92,17.69-6.28,9.23-2.8,15.37-4.62,23.57-5.14,7-.44,12.79.23,16.63.89Z"/><path class="cls-1" d="m121.52,97.65c.16.82.3,2.08.02,3.56-.5,2.6-1.99,4.28-2.66,4.94,0,0-13.77-1.02-19.4.34,0,0-13.72.14-19.71,3.87,0,0-8.96,4.72-11.45,9.13l-9.79,14.71s-5.9,10.11-11.91,13.84c-6.02,3.73-14,4.83-14,4.83,0,0-9.88.77-12.71-1.16s-9.83-2.14-11.92-21.61c-2.09-19.47,16.97-20.34,16.97-20.34,0,0,10.77-2.64,10.43,14.26,0,0-2.69-.21-3.42-1.27,0,0-3.48-4.17-10.01-.95,0,0-4.64,3.5-2.53,10.79,0,0,.86,10.94,8.93,10.42,0,0,9.28-.11,12.08-5.14,2.25-2.7,4.57-5.73,6.89-9.08,1.97-2.86,3.72-5.63,5.26-8.28,2.77-4.24,8.69-12.05,19.07-17.73,7.19-3.93,13.89-5.4,18.35-6.01,2.11-.42,4.81-.86,7.99-1.1,3.31-.25,7-.53,11.64.15,2.35.34,3.92.78,8.75,1.45,1.31.18,2.4.32,3.13.41Z"/><path class="cls-1" d="m117.05,118.79s.74,7.84-1.67,9.86c0,0-14.93-2.01-22.97,1.26,0,0-8.21,1.36-12.16,7.46,0,0-7.13,6.39-8.95,14.87l-7.71,18.16s-2.89,7.1-4,9.12-4.58,6.16-4.58,6.16c0,0-5.91,5.64-6.55,5.69s-6.71,3.79-6.71,3.79c0,0-11.16,4.18-16.52,1.44,0,0-10.5-2.93-9.59-14.53,0,0,2.54-.22,3.92.94,1.38,1.16,3.34,1.63,3.34,1.63.88.42,1.93.84,3.14,1.17,2.37.64,4.46.69,5.98.6,1.19-.29,2.47-.68,3.82-1.21,4.39-1.75,7.55-4.31,9.61-6.36,0,0,4.17-3.57,8.26-15.45,4.09-11.88,5.19-13.9,5.19-13.9l5.36-11.99s3.26-6.69,11.02-13.13c7.76-6.44,16.02-7.16,16.02-7.16,0,0,22.3-1.31,25.75,1.59Z"/><path class="cls-1" d="m110.02,143.67s2,4.22.94,9.08c0,0-17.83,1.17-20.6,9.85,0,0-4.12,5.51-6.81,16.33-2.7,10.82-2.71,10.29-2.71,10.29,0,0-5.37,22.18-7.79,23.34,0,0-6.35,12.02-17.33,15.1,0,0-6.69,2.38-16.58,1.66-9.88-.72-12.63-8.67-12.63-8.67-.46-1.34-2.33-7.27,1.41-12.38.66-.9,2.06-2.77,4.79-3.92,3.55-1.51,8.3-1.36,11.11.68.49.35,3.86,4.69,3.86,4.69h0c-1.93-.06-5.17.13-7.94,1.89-1.2.76-1.62,1.37-1.79,1.67-1.08,1.85-.45,4.51,1.44,5.85,1.4.99,3.05.94,4.96.9,2.67-.07,4.77-.76,6.12-1.29,5.45-2.16,8.79-5.84,9.62-6.78,2.1-2.4,6.93-13.12,6.93-13.12l4.27-18.38c.77-3.48,1.88-7.39,3.52-11.59,2.03-5.24,4.4-9.73,6.68-13.44,1.19-1.35,2.76-2.89,4.77-4.39,3.77-2.82,7.57-4.38,10.29-5.26,1.28-.4,2.68-.77,4.2-1.09,3.48-.73,6.65-.98,9.28-1Z"/><path class="cls-1" d="m263.34,102.66s56.62-8.24,64.83-36.48c.68-2.35,3.12-10.34-.84-17-5.66-9.51-22.41-13.1-31.95-5.77-4.37,3.36-7.86,9.56-7.35,15.99,1.24,15.84,19.33,8.79,19.33,8.79-7.56-1.81-11.6-8.11-10.46-12.73,1.07-4.3,6.45-6.4,10.2-6.65,5.9-.39,11.51,3.57,13.15,8.38,2.02,5.95-2.44,12.01-5.58,16.15-13.13,17.32-37.59,25.65-51.34,29.31Z"/><path class="cls-1" d="m258.92,155.25s29.15,2.19,34.33,16.28c.43,1.17,1.96,5.16.17,8.69-2.55,5.05-10.95,7.47-16.07,4.08-2.34-1.56-4.34-4.59-4.32-7.88.07-8.12,9.54-5.16,9.54-5.16-3.79,1.19-5.62,4.55-4.88,6.86.7,2.15,3.51,3.03,5.44,3.02,3.02-.01,5.74-2.23,6.4-4.74.82-3.1-1.67-6.04-3.42-8.03-7.31-8.36-20.07-11.73-27.2-13.11Z"/><path class="cls-1" d="m492.38,115.67l-6.62,17.58c-6.12,12.55-16.5,28.29-33.51,33.62-21.36,6.68-32.08-8.96-83.09-26.56-60.29-20.8-94.37-9.75-103-6.57-4.8,1.77-9.45,3.96-9.45,3.96-2.71,1.27-4.95,2.45-6.65,3.39,1.15-.99,2.76-2.32,4.76-3.83,0,0,3.47-2.61,7.19-4.89,4.86-2.99,23.18-13.54,52.42-14.13,58.31-1.18,108.3,38.36,132.1,18.29,3.69-3.11,5.83-6.88,7.13-9.95"/><path class="cls-1" d="m453.67,126.57l30.28-74.77c6.82-16.57,14.69-29.24,23.6-38.01,9.05-8.91,19.29-13.37,30.7-13.37,9.19,0,18.8,2.58,28.82,7.73l-.42,2.09c-4.04-1.39-8.39-2.09-13.05-2.09s-9.57,1.95-14.73,5.85c-6.13,4.6-11.91,13.02-17.33,25.27l46.58,106.31c2.09,3.76,4.7,6.58,7.83,8.46,3.13,1.88,6.3,2.82,9.5,2.82h1.88v2.09h-44.7v-2.09h1.67c1.95,0,3.73-.52,5.33-1.57,1.6-1.04,2.65-2.22,3.13-3.55.49-1.32.73-2.54.73-3.65s-.35-2.57-1.04-4.39l-11.07-26.32h-49.29m23.18-62.87c-.42,1.39-1.25,3.8-2.51,7.21-1.25,3.41-2.23,6.09-2.92,8.04l-14.62,38.64h42.61l-22.56-53.89Z"/></svg>