<?xml version="1.0" encoding="UTF-8"?><svg id="Layer_2" xmlns="http://www.w3.org/2000/svg" width="239.2419487" height="420.0366376" viewBox="0 0 239.2419487 420.0366376"><defs><style>.cls-1{fill:none;stroke:#e5978a;stroke-miterlimit:10;stroke-width:12px;}</style></defs><path class="cls-1" d="m187.8414033,136.7217724c.3688198,31.3894181.2960884,49.4523388-.8475009,61.1249704s-3.3580365,16.9549743-7.2726481,22.7832364c-.651981.9707437-6.3547287,9.185803-16.4865772,17.1107212-10.1318486,7.9249182-24.692798,15.5596954-43.0611824,15.369875-16.0981393-.1663613-29.0815476-6.2421416-38.3155078-12.6218368-9.2339602-6.3796952-14.7184723-13.0633055-15.8188192-14.4453267-4.0944371-5.1424141-7.1238399-10.5075244-9.3066297-23.4080205-3.4071088-14.8561822-3.5189667-33.336378-4.2269521-68.6203353-.6894825-34.3618665-.2086124-54.1723654,1.2192118-66.6523531,1.4278243-12.4799878,3.8026028-17.6294644,6.9009372-22.6692863,1.1943485-1.9427265,7.3569852-11.6611086,17.7523562-20.7713717S103.4015673,6.3096379,121.5268528,6.7993877c15.7782201.4263111,28.560698,7.561261,37.9433425,15.4205722s15.3654558,16.4429838,17.5443426,19.7667403c4.1952121,6.3995405,6.6922422,12.2382105,8.2453124,25.3995444,1.5530702,13.1613339,2.1621805,33.6453317,2.581553,69.3355278Z"/><path class="cls-1" d="m226.2151998,169.9256935c6.7785645,4.180542,8.6451416,20.0130005,5.0921631,39.3840332-3.5529785,19.3709717-12.5253906,42.2805176-27.4246826,60.6152954-4.4375,5.4606323-13.5328369,15.6003418-27.1578369,24.6494751-13.625,9.0491943-31.7796631,17.0078125-54.3355713,18.1062012-.6815186.0332031-2.274292.0944214-4.600708.0615234-2.326416-.032959-5.3863525-.1600342-9.0023193-.50354-8.583374-.8154297-20.2994385-2.8503418-32.7719727-7.7398071-12.4724731-4.8894653-25.7015381-12.6334839-37.3109741-24.8671265-18.3240356-19.3093262-28.0218506-44.9653931-31.2406616-66.8583374-3.218811-21.8930054.0414429-40.0228271,7.6334839-44.2797241,1.4526978-.8145142,3.3455811-1.2790527,5.2822266-1.2985229s3.9169312.406189,5.5443726,1.3720093c3.8250732,2.2699585,5.2069702,7.2307739,5.5930786,12.8699341s-.2235718,11.956665-.3817139,16.9399414c-.4263916,13.4421997,2.1154785,27.1948853,6.4783325,39.5279541,4.362793,12.3330688,10.5466309,23.246521,17.4042358,31.0102539,12.0314941,13.6212769,28.0801392,19.8839722,41.5342407,22.7123413s24.3135986,2.2224731,25.9669189,2.1065063c15.5510254-1.0908813,29.0427246-6.2789917,40.126709-13.2197266,11.0839844-6.9406738,19.760376-15.6339722,25.6809082-23.7351685,2.4996338-3.4202881,7.7276611-10.5740356,12.3978271-20.4446411,4.6700439-9.8706055,8.7822266-22.4580688,9.0500488-36.7458496.1031494-5.503479-.355835-11.8587036.0908203-17.3775635.4466553-5.5187988,1.7989502-10.2011719,5.5244141-12.3589478,1.5889893-.9202881,3.5551758-1.3585815,5.4943848-1.338501,1.9390869.0201416,3.8513184.4986572,5.3322754,1.4119873Z"/><path class="cls-1" d="m109.2744855,317.1304939v77.4208915h-57.0795073s-3.4610474,2.4604042-5.1915711,6.0940843-1.7305237,8.440636,5.1915711,13.1337395h135.3642425s2.777262-2.8096327,4.2011659-6.5860499,1.4944495-8.5196191-3.9189832-12.3867574h-56.8410433l-.1766481-39.0135963-.1766481-39.0135963-10.6862892.1756424-10.6862892.1756424Z"/><polygon class="cls-1" points="120.1734946 93.4143108 88.249462 93.4493864 56.3254293 93.484462 56.4723375 89.3893119 56.6192457 85.2941618 88.3963702 85.2941618 120.1734946 85.2941618 120.1734946 89.3542363 120.1734946 93.4143108"/><polygon class="cls-1" points="120.1734946 128.6016233 87.749462 128.6612333 55.3254293 128.7208434 55.3254293 124.5637422 55.3254293 120.406641 87.749462 120.4440577 120.1734946 120.4814743 120.1734946 124.5415488 120.1734946 128.6016233"/><polygon class="cls-1" points="120.1734946 163.7889358 88.9346298 163.8730803 57.695765 163.9572247 57.5105971 159.8001235 57.3254293 155.6430224 88.749462 155.6559046 120.1734946 155.6687868 120.1734946 159.7288613 120.1734946 163.7889358"/><polygon class="cls-1" points="122.880211 201.6829647 91.6618145 201.6260286 60.443418 201.5690924 59.8844236 197.6099484 59.3254293 193.6508045 91.1028201 193.6068101 122.880211 193.5628157 122.880211 197.6228902 122.880211 201.6829647"/></svg>