<?xml version="1.0" encoding="UTF-8"?><svg id="Layer_2" xmlns="http://www.w3.org/2000/svg" width="507.242" height="423.037" viewBox="0 0 507.242 423.037"><defs><style>.cls-1{stroke-width:12px;}.cls-1,.cls-2{fill:none;stroke:#b3b3b3;stroke-miterlimit:10;}.cls-2{stroke-width:2px;}.cls-3{fill:#bfbfbf;stroke-width:0px;}</style></defs><path class="cls-3" d="m447.361,229.26c-.288,15.178-3.698,29.241-8.681,41.779s-11.54,23.549-18.122,32.624-13.189,16.214-18.272,21.006-8.644,7.237-9.133,6.924c-.463-.296,1.873-3.034,5.664-7.904,3.791-4.87,9.037-11.872,14.395-20.696s10.827-19.47,15.064-31.629c4.237-12.158,7.242-25.829,7.672-40.702.431-14.936-1.8-28.814-5.358-41.248-3.558-12.434-8.442-23.423-13.316-32.582s-9.736-16.488-13.251-21.601-5.682-8.01-5.164-8.304c.537-.306,3.907,2.218,8.643,7.104s10.837,12.137,16.837,21.286,11.896,20.195,16.222,32.674c4.326,12.479,7.082,26.39,6.8,41.269Z"/><path class="cls-3" d="m393.731,226.954c-.21,11.043-2.69,21.274-6.316,30.396s-8.396,17.133-13.184,23.736-9.595,11.797-13.294,15.283-6.289,5.265-6.644,5.037c-.337-.216,1.363-2.208,4.121-5.751s6.575-8.637,10.473-15.057,7.877-14.165,10.96-23.011,5.269-18.792,5.582-29.612c.314-10.867-1.31-20.964-3.898-30.01s-6.142-17.041-9.688-23.705c-3.546-6.664-7.083-11.996-9.641-15.715s-4.134-5.827-3.757-6.042c.391-.222,2.843,1.613,6.288,5.169s7.885,8.83,12.249,15.486,8.655,14.693,11.802,23.772,5.153,19.2,4.947,30.025Z"/><path class="cls-3" d="m341.152,226.892c-.138,7.259-1.768,13.984-4.152,19.98s-5.519,11.262-8.666,15.602-6.307,7.754-8.738,10.046-4.134,3.461-4.367,3.311c-.221-.142.896-1.451,2.709-3.78s4.322-5.678,6.884-9.897,5.178-9.311,7.204-15.126,3.464-12.352,3.669-19.465c.206-7.143-1.038-13.773-3.005-19.708s-4.656-11.177-7.34-15.543-5.363-7.857-7.309-10.291-3.159-3.813-2.912-3.954c.257-.146,2.045,1.053,4.575,3.38s5.802,5.78,9.024,10.141c3.223,4.361,6.396,9.63,8.73,15.587s3.829,12.603,3.694,19.718Z"/><path class="cls-1" d="m305.402,25.639s-.062-1.777-.453-4.105-1.109-5.208-2.422-7.413-3.219-3.737-5.984-3.37-6.391,2.635-11.141,8.026c0,0-.219.276-.75.567s-1.375.597-2.625.659-2.906-.123-5.062-.812-4.812-1.884-8.062-3.845c0,0-1.066-1.01-3.063-2.345s-4.925-2.996-8.649-4.296-8.244-2.242-13.425-2.138-11.023,1.252-17.391,4.13c0,0-.592.168-1.902.864s-3.338,1.921-6.209,4.034-6.587,5.114-11.272,9.364-10.339,9.748-17.089,16.855c0,0-6.688,6.494-16.734,16.374-10.047,9.88-23.453,23.144-36.891,36.684s-26.906,27.356-37.078,38.339-17.047,19.131-17.297,21.337c0,0-1.875,2.328-4.531,6.448s-6.094,10.033-9.219,17.201-5.938,15.593-7.344,24.737-1.406,19.008,1.094,29.056,5.062,18.626,7.5,25.84,4.75,13.065,6.75,17.661,3.688,7.934,4.875,10.125,1.875,3.232,1.875,3.232c0,0,5.188,9.68,14.625,23.711,9.438,14.03,23.125,32.411,40.125,49.811s37.312,33.82,60,43.929,47.75,13.908,74.25,6.066c0,0,3.321-2.194,7.481-6.68s9.16-11.266,12.517-20.438c3.357-9.172,5.071-20.737,2.66-34.793s-8.946-30.605-22.089-49.745c-13.142-19.14-20.874-37.477-25.079-54.217-4.205-16.74-4.883-31.882-3.919-44.632s3.572-23.107,5.938-30.277c2.366-7.17,4.491-11.152,4.491-11.152,0,0,1.062-1.654,2.891-4.35s4.422-6.433,7.484-10.599,6.594-8.761,10.297-13.173,7.578-8.639,11.328-12.07c3.75-3.431,7.08-8.028,9.966-12.992s5.328-10.298,7.301-15.202,3.478-9.38,4.489-12.629,1.529-5.273,1.529-5.273c0,0,.107-1.714.182-4.615s.117-6.987-.012-11.733-.431-10.149-1.043-15.684c-.613-5.535-1.537-11.201-2.912-16.47Z"/><path class="cls-1" d="m277.005,129.472s-.256-4.682-1.704-11.062-4.085-14.458-8.848-21.249-11.651-12.296-21.598-13.529-22.954,1.804-39.954,12.097c-17,10.293-29.938,18.319-39.781,24.569-9.844,6.249-16.594,10.722-21.219,13.908s-7.125,5.085-8.469,6.188-1.531,1.409-1.531,1.409c0,0-1.625,1.225-4.297,3.048s-6.391,4.243-10.578,6.632-8.844,4.748-13.391,6.448-8.984,2.742-12.734,2.497c0,0-1.313.619-3.336,1.662s-4.758,2.51-7.603,4.204-5.797,3.618-8.258,5.573-4.43,3.943-5.304,5.768"/><path class="cls-1" d="m61.902,231.99s4.507,5.648,11.898,14.019c7.392,8.371,17.669,19.465,29.209,30.357,11.541,10.892,24.345,21.582,36.793,29.145,12.447,7.563,24.537,11.999,34.648,10.383,1.338-.214,2.682-.386,4.028-.509s2.695-.199,4.044-.22,2.697.012,4.043.106,2.689.248,4.026.469c3.248.536,7.056,1.256,11.162,2.208s8.512,2.137,12.956,3.603,8.926,3.214,13.186,5.292,8.297,4.487,11.852,7.275c.333.261.681.502,1.043.72s.738.41,1.126.573.787.297,1.195.397.827.165,1.252.19c.464.028.948.013,1.434-.067s.974-.226,1.445-.46.927-.556,1.348-.988.808-.976,1.143-1.653c.271-.547.469-1.117.601-1.7s.197-1.177.199-1.775-.058-1.197-.176-1.788-.294-1.175-.524-1.739c-.596-1.466-1.31-3.626-1.777-6.391s-.686-6.135-.293-10.023,1.399-8.294,3.383-13.129,4.946-10.1,9.251-15.707"/><path class="cls-2" d="m187.116,124.902s.188-.491.438-1.32.562-1.996.812-3.347.438-2.887.438-4.453-.188-3.163-.688-4.637l-6.05,3.867-6.05,3.867-6.05,3.867-6.05,3.867,5.8-.427,5.8-.427,5.8-.427,5.8-.427Z"/><path class="cls-2" d="m241.621,87.217s.343.697.827,2.249,1.108,3.96,1.67,7.381,1.061,7.855,1.295,13.461.202,12.383-.298,20.49c0,0-2.039.304-5.468.653s-8.247.743-13.806.922-11.857.145-18.247-.363-12.87-1.489-18.792-3.202l.328-4.661.328-4.661.328-4.661.328-4.661s2.126-1.517,5.588-3.772,8.26-5.247,13.605-8.198,11.236-5.86,16.885-7.949c5.649-2.089,11.055-3.357,15.428-3.026Z"/><path class="cls-2" d="m245.285,127.753s1.046.22,2.654.476,3.78.551,6.031.699,4.582.151,6.509-.174,3.451-.979,4.088-2.143.956-3.242,1.075-5.704.04-5.307-.119-8.008-.398-5.255-.597-7.134-.358-3.084-.358-3.084c0,0-.341-.884-1.102-2.225s-1.942-3.139-3.624-4.968-3.863-3.688-6.624-5.152-6.102-2.532-10.102-2.777c0,0,.396,1.769.925,4.608s1.191,6.749,1.723,11.03.933,8.934.941,13.259-.378,8.324-1.42,11.296Z"/><path class="cls-2" d="m283.116,121.988c.25-.246.062-1.29-.359-2.718s-1.078-3.24-1.766-5.021-1.406-3.532-1.953-4.837-.922-2.165-.922-2.165"/></svg>