<?xml version="1.0" encoding="UTF-8"?>
<svg id="Layer_2" data-name="Layer 2" xmlns="http://www.w3.org/2000/svg" viewBox="0 0 920.61 423.04">
  <defs>
    <style>
      .cls-1 {
        stroke-width: 12px;
      }

      .cls-1, .cls-2 {
        fill: none;
        stroke: #e5978a;
        stroke-miterlimit: 10;
      }

      .cls-2 {
        stroke-width: 2px;
      }

      .cls-3 {
        fill: #77b6ea;
        stroke-width: 0px;
      }
    </style>
  </defs>
  <g>
    <path class="cls-3" d="m704.24,226.95c-.29,15.18-3.7,29.24-8.68,41.78s-11.54,23.55-18.12,32.62-13.19,16.21-18.27,21.01-8.64,7.24-9.13,6.92c-.46-.3,1.87-3.03,5.66-7.9,3.79-4.87,9.04-11.87,14.39-20.7s10.83-19.47,15.06-31.63c4.24-12.16,7.24-25.83,7.67-40.7.43-14.94-1.8-28.81-5.36-41.25-3.56-12.43-8.44-23.42-13.32-32.58s-9.74-16.49-13.25-21.6-5.68-8.01-5.16-8.3c.54-.31,3.91,2.22,8.64,7.1s10.84,12.14,16.84,21.29,11.9,20.2,16.22,32.67c4.33,12.48,7.08,26.39,6.8,41.27h0Z"/>
    <path class="cls-3" d="m650.61,224.64c-.21,11.04-2.69,21.27-6.32,30.4s-8.4,17.13-13.18,23.74-9.6,11.8-13.29,15.28-6.29,5.27-6.64,5.04c-.34-.22,1.36-2.21,4.12-5.75s6.58-8.64,10.47-15.06,7.88-14.17,10.96-23.01,5.27-18.79,5.58-29.61c.31-10.87-1.31-20.96-3.9-30.01-2.59-9.05-6.14-17.04-9.69-23.71s-7.08-12-9.64-15.71-4.13-5.83-3.76-6.04c.39-.22,2.84,1.61,6.29,5.17s7.89,8.83,12.25,15.49,8.65,14.69,11.8,23.77,5.15,19.2,4.95,30.02h0Z"/>
    <path class="cls-3" d="m598.04,224.58c-.14,7.26-1.77,13.98-4.15,19.98s-5.52,11.26-8.67,15.6-6.31,7.75-8.74,10.05-4.13,3.46-4.37,3.31c-.22-.14.9-1.45,2.71-3.78s4.32-5.68,6.88-9.9,5.18-9.31,7.2-15.13,3.46-12.35,3.67-19.46c.21-7.14-1.04-13.77-3.01-19.71s-4.66-11.18-7.34-15.54-5.36-7.86-7.31-10.29-3.16-3.81-2.91-3.95c.26-.15,2.05,1.05,4.58,3.38s5.8,5.78,9.02,10.14c3.22,4.36,6.4,9.63,8.73,15.59s3.83,12.6,3.69,19.72h0Z"/>
  </g>
  <g>
    <path class="cls-1" d="m581.06,25.6s-.06-1.78-.45-4.1-1.11-5.21-2.42-7.41-3.22-3.74-5.98-3.37-6.39,2.64-11.14,8.03c0,0-.22.28-.75.57s-1.38.6-2.62.66-2.91-.12-5.06-.81-4.81-1.88-8.06-3.85c0,0-1.07-1.01-3.06-2.35s-4.92-3-8.65-4.3-8.24-2.24-13.43-2.14-11.02,1.25-17.39,4.13c0,0-.59.17-1.9.86s-3.34,1.92-6.21,4.03-6.59,5.11-11.27,9.36-10.34,9.75-17.09,16.86c0,0-6.69,6.49-16.73,16.37-10.05,9.88-23.45,23.14-36.89,36.68s-26.91,27.36-37.08,38.34c-10.17,10.98-17.05,19.13-17.3,21.34,0,0-1.88,2.33-4.53,6.45s-6.09,10.03-9.22,17.2-5.94,15.59-7.34,24.74-1.41,19.01,1.09,29.06,5.06,18.63,7.5,25.84,4.75,13.07,6.75,17.66,3.69,7.93,4.88,10.12,1.88,3.23,1.88,3.23c0,0,5.19,9.68,14.62,23.71,9.44,14.03,23.12,32.41,40.12,49.81s37.31,33.82,60,43.93,47.75,13.91,74.25,6.07c0,0,3.32-2.19,7.48-6.68s9.16-11.27,12.52-20.44,5.07-20.74,2.66-34.79-8.95-30.61-22.09-49.74c-13.14-19.14-20.87-37.48-25.08-54.22s-4.88-31.88-3.92-44.63,3.57-23.11,5.94-30.28c2.37-7.17,4.49-11.15,4.49-11.15,0,0,1.06-1.65,2.89-4.35,1.83-2.7,4.42-6.43,7.48-10.6s6.59-8.76,10.3-13.17,7.58-8.64,11.33-12.07,7.08-8.03,9.97-12.99,5.33-10.3,7.3-15.2,3.48-9.38,4.49-12.63,1.53-5.27,1.53-5.27c0,0,.11-1.71.18-4.61s.12-6.99-.01-11.73-.43-10.15-1.04-15.68c-.61-5.53-1.54-11.2-2.91-16.47h0Z"/>
    <path class="cls-1" d="m552.66,129.43s-.26-4.68-1.7-11.06-4.08-14.46-8.85-21.25-11.65-12.3-21.6-13.53-22.95,1.8-39.95,12.1-29.94,18.32-39.78,24.57c-9.84,6.25-16.59,10.72-21.22,13.91s-7.12,5.09-8.47,6.19-1.53,1.41-1.53,1.41c0,0-1.62,1.23-4.3,3.05s-6.39,4.24-10.58,6.63-8.84,4.75-13.39,6.45-8.98,2.74-12.73,2.5c0,0-1.31.62-3.34,1.66s-4.76,2.51-7.6,4.2-5.8,3.62-8.26,5.57-4.43,3.94-5.3,5.77"/>
    <path class="cls-1" d="m337.56,231.95s4.51,5.65,11.9,14.02c7.39,8.37,17.67,19.46,29.21,30.36,11.54,10.89,24.35,21.58,36.79,29.14,12.45,7.56,24.54,12,34.65,10.38,1.34-.21,2.68-.39,4.03-.51s2.7-.2,4.04-.22,2.7.01,4.04.11,2.69.25,4.03.47c3.25.54,7.06,1.26,11.16,2.21s8.51,2.14,12.96,3.6,8.93,3.21,13.19,5.29,8.3,4.49,11.85,7.27c.33.26.68.5,1.04.72s.74.41,1.13.57.79.3,1.2.4.83.17,1.25.19c.46.03.95.01,1.43-.07s.97-.23,1.45-.46.93-.56,1.35-.99.81-.98,1.14-1.65c.27-.55.47-1.12.6-1.7s.2-1.18.2-1.77-.06-1.2-.18-1.79-.29-1.17-.52-1.74c-.6-1.47-1.31-3.63-1.78-6.39s-.69-6.14-.29-10.02,1.4-8.29,3.38-13.13,4.95-10.1,9.25-15.71"/>
    <path class="cls-2" d="m462.77,124.86s.19-.49.44-1.32.56-2,.81-3.35.44-2.89.44-4.45-.19-3.16-.69-4.64l-6.05,3.87-6.05,3.87-6.05,3.87-6.05,3.87,5.8-.43,5.8-.43,5.8-.43,5.8-.43h0Z"/>
    <path class="cls-2" d="m517.28,87.18s.34.7.83,2.25,1.11,3.96,1.67,7.38,1.06,7.86,1.29,13.46.2,12.38-.3,20.49c0,0-2.04.3-5.47.65s-8.25.74-13.81.92-11.86.15-18.25-.36-12.87-1.49-18.79-3.2l.33-4.66.33-4.66.33-4.66.33-4.66s2.13-1.52,5.59-3.77,8.26-5.25,13.6-8.2,11.24-5.86,16.88-7.95,11.06-3.36,15.43-3.03h0Z"/>
    <path class="cls-2" d="m520.94,127.71s1.05.22,2.65.48c1.61.26,3.78.55,6.03.7,2.25.15,4.58.15,6.51-.17s3.45-.98,4.09-2.14.96-3.24,1.08-5.7.04-5.31-.12-8.01-.4-5.25-.6-7.13-.36-3.08-.36-3.08c0,0-.34-.88-1.1-2.22s-1.94-3.14-3.62-4.97-3.86-3.69-6.62-5.15-6.1-2.53-10.1-2.78c0,0,.4,1.77.93,4.61s1.19,6.75,1.72,11.03.93,8.93.94,13.26-.38,8.32-1.42,11.3h0Z"/>
    <path class="cls-2" d="m558.77,121.95c.25-.25.06-1.29-.36-2.72s-1.08-3.24-1.77-5.02-1.41-3.53-1.95-4.84-.92-2.17-.92-2.17"/>
  </g>
</svg>