<?xml version="1.0" encoding="UTF-8"?><svg id="Layer_1" xmlns="http://www.w3.org/2000/svg" width="337" height="337" viewBox="0 0 337 337"><defs><style>.cls-1{opacity:.05;}.cls-2{fill:#fff;}.cls-2,.cls-3{stroke-width:0px;}.cls-3{fill:#005185;}</style></defs><path class="cls-3" d="m336.5551579,168.6448539c0,46.5299902-18.8600049,88.6549902-49.3525074,119.1474926-30.4925025,30.4925025-72.6175025,49.3525074-119.1474926,49.3525074s-88.6549902-18.8600049-119.1474926-49.3525074C18.4151629,257.2998441-.4448421,215.1748441-.4448421,168.6448539S18.4151629,79.9898638,48.9076653,49.4973613C79.4001678,19.0048589,121.5251678.1448539,168.0551579.1448539s88.6549902,18.8600049,119.1474926,49.3525074c30.4925025,30.4925025,49.3525074,72.6175025,49.3525074,119.1474926Z"/><g class="cls-1"><path class="cls-2" d="m350.6142578,280.6757812c-21.8017578,10.9960938-43.9033203,12.796875-66.2998047,5.3994141-23.8027344-7.6025391-44.3017578-23.8027344-61.5-48.5996094-9.2011719-13.2001953-17.0996094-28.5-23.7001953-45.9003906l-9.5996094-25.4995117h-70.7998047l-15.9003906,37.7993164c-1.0029297,2.6015625-1.5,4.7021484-1.5,6.3007812,0,1.6025391.3466797,3.3515625,1.0498047,5.25.6982422,1.9023438,2.1982422,3.5996094,4.5,5.0996094,2.296875,1.5,4.8466797,2.25,7.6503906,2.25h2.3994141v3H52.7148438v-3h2.6992188c4.6035156,0,9.1503906-1.3496094,13.6503906-4.0498047s8.25-6.75,11.25-12.1503906L147.2148438,53.8754883c-7.8007812-17.5966797-16.1015625-29.6992188-24.9003906-36.2998047-7.4013672-5.5966797-14.4511719-8.3994141-21.1503906-8.3994141-6.703125,0-12.9511719,1.0029297-18.75,3l-.5996094-3C96.2148438,1.7788086,110.0146484-1.9243164,123.2148438-1.9243164c16.3964844,0,31.0966797,6.4033203,44.0996094,19.2001953,12.796875,12.5996094,24.0986328,30.8017578,33.9003906,54.5996094l43.5,107.3999023c16.3964844,40.6035156,33.1962891,68.4980469,50.3994141,83.7001953,6.9990234,6.1962891,14.1982422,10.5,21.6005859,12.8994141,7.3964844,2.4003906,13.6494141,3.6005859,18.75,3.6005859,5.0996094,0,10.0498047-.6005859,14.8496094-1.7998047l.2998047,3Zm-226.7998047-127.4995117h61.2001953l-21-55.5c-1.0029297-2.7988281-2.4003906-6.6474609-4.2001953-11.5507812-1.7998047-4.8984375-3-8.3476562-3.5996094-10.3496094l-32.4003906,77.4003906Z"/></g><path class="cls-2" d="m322.0119532,168.2994448c0,42.4832366-17.219734,80.9445889-45.0602771,108.785132-27.8405431,27.8405431-66.3018954,45.0602771-108.785132,45.0602771s-80.9445889-17.219734-108.785132-45.0602771S14.321135,210.7826815,14.321135,168.2994448,31.540869,87.3548559,59.3814121,59.5143128C87.2219552,31.6737697,125.6833075,14.4540357,168.1665441,14.4540357s80.9445889,17.219734,108.785132,45.0602771c27.8405431,27.8405431,45.0602771,66.3018954,45.0602771,108.785132Z"/><path class="cls-3" d="m96.4118228,52.8468815c-4.8932042-.2865748-10.3637274,2.3374855-14.6043853,6.5439497s-7.2514506,9.9953324-7.2251936,16.0383734c.0186762,4.2995637,1.5749725,7.9406715,3.4775678,10.8504738s4.1514895,5.0882991,5.5553614,6.4626405c4.462515,4.3686632,9.4707512,6.7786136,13.7761239,8.1146322s7.907882,1.5981053,9.5589433,1.6710411c7.1986438.3180004,13.5589846-.7494936,18.7032146-2.2095778s9.0723491-3.3127586,11.4065495-4.5651192c4.4666155-2.3964774,6.7751219-4.379885,8.9768605-6.3720507s4.2967094-3.9930895,8.3362539-6.424599c5.9956729-3.6089586,11.9690746-5.5745056,17.4087637-6.6900626s10.3456657-1.3811239,14.2064886-1.5901225c9.6224119-.5208655,23.5453522.3542271,35.9109395,3.7447802s23.1738215,9.2965666,26.566821,18.8375429c1.9877838,5.5895752.7600032,10.5413349-.162647,15.7599135s-1.5401701,10.7039761,1.6681352,17.3608271c1.6669809,3.4587682,3.8906289,6.2458257,6.185289,8.4683367s4.6603321,3.8804753,6.6113608,5.0810572c1.5497551.6250202,3.0252535,1.1026295,4.410587,1.4674582s2.6805023.6168766,3.8695981.7907741c1.6431819.2402864,3.0316741.3237089,4.0678688.4935346s1.7200919.4260546,1.954084,1.0119536c.2205075.5521073-.1040973,1.0324043-.6038056,1.6990841s-1.1745202,1.5197423-1.6544267,2.8173805c-.5596421,1.5132527-.7452897,3.336592-.510017,4.9990646s.8914658,3.1640786,2.0155052,4.0338646c.9815904.7595438,2.0627757.8382456,2.9876025.8792677s1.6932952.0443645,2.049452.6531895c.2268708.3878121.2678642.9895617-.18211,1.9692684s-1.3909157,2.3373706-3.127915,4.2370111c0,0,1.4895112.7714203,2.64802,2.2602481s1.986015,3.6950632.662005,6.5646933c0,0-1.9860265.6073088-3.3100422,2.7041346s-1.9860207,5.6831686.6620222,11.6412365c1.136605,2.5573498,1.4622091,4.6308533,1.448782,6.1865926s-.3658854,2.5937143-.5854051,3.0800071c-.3725587.8253354-1.1797348,2.0005332-4.813618,3.099516s-10.0944735,2.1217503-21.7738606,2.6422253c-6.1939666.2760307-9.6260759.2222879-11.9577781.3145948s-3.5629976.3306637-5.3553362,1.1908934c-2.8401801,1.3631312-4.9098704,3.2418328-7.0224377,6.2868191s-4.2680117,7.2562574-7.2797003,13.2845275c-2.7209099,5.4462534-5.2192103,10.5311009-7.4818073,15.1934028s-4.2894905,8.9020582-6.0675866,12.658129c.7863061,2.2979737,1.7442354,4.7905886,2.7793677,6.6856118s2.1474674,3.1924546,3.2425851,3.1000615c1.3491413-.1138259,2.1163692-2.2901173,2.9154419-5.6080389s1.6299903-7.7774732,3.1065109-12.4578196c1.1221097-3.5569502,3.0655692-9.7174237,6.2972829-15.7662365,3.2317137-6.0488127,7.7516815-11.9859647,14.0268079-15.0962717,6.2997294-3.1225051,12.3649728-2.4033345,18.7154988-1.827681,6.350526.5756535,12.9863347,1.0077899,20.4271945-2.6887836,2.67175-1.3273179,4.4422883-2.6876006,5.6291788-3.9770493s1.7901334-2.5080635,2.1272923-3.5520457c.5846126-1.8101878.5676593-3.7096676.2903077-5.5239559s-.8151014-3.5433853-1.2720819-5.0128076c-.7867426-2.5297375-1.6002015-3.9688828-2.1866173-5.1851372s-.9457887-2.209618-.8243591-3.847792c.0862826-1.1642632.4118981-2.6065556,1.0236004-3.8834732s1.5094911-2.3884602,2.7401202-2.8912238c.4652504-.1900697.994248-.1646857,1.5188062-.1985693s1.0446771-.1270348,1.4921702-.5541748c.000023-.000023.1379694-.1316981.3010299-.3857159s.351235-.6303784.4517142-1.1197723c.3033213-1.4775084-.952083-3.4922153-2.3142666-5.1652148s-2.8311464-3.0042916-2.9549421-3.1149703c.000023,0,1.1974576-1.3883429,2.2666343-3.2116305s2.0100953-4.0815199,1.4970862-5.8212988c-.0012864-.0043876-.0644477-.1940324-.1897998-.5700369s-.3128949-.9383688-.5629443-1.6881954c-1.5721068.2389999-2.4543207.3809894-3.0007654.4278923s-.7571203-.0012807-.9861504-.142627c-.4532361-.2797292-.678361-.7392022-.837901-1.5933156s-.2534952-2.1028674-.4443919-3.9611585c1.5663179-4.3539382,2.564919-7.264826,3.0282513-9.2009919s.3913957-2.89761-.1833619-3.3526609c-.1988909-.1574726-.4207538-.2248262-.6493877-.2495096s-.4640387-.0066963-.6900135.0065125c-3.4321207.2006598-7.1958527-.5521877-10.1015488-1.3551484s-4.9533562-1.6560347-4.9533332-1.655828c.0002757,0-1.7549863-1.1094292-3.8558954-2.887353s-4.5474652-4.2243421-5.929778-6.8983204c-1.2859225-2.4875151-1.2669477-4.4293206-.9359797-7.0365769s.9739293-5.8799633.9359797-11.0292816c-.0238219-3.232219-.0443243-6.0139701-.3308991-8.5727441s-.8392219-4.894571-1.9273332-7.2348821c-2.8789797-6.1920829-8.7127465-10.7085475-13.8267684-13.6769914s-9.5082988-4.388867-9.5082988-4.388867c-.8075321-.045829-13.7514549-4.2860332-30.8570237-6.1013438-17.1055687-1.8153106-38.3727835-1.2057275-55.8268995,8.448018-2.6149634,1.4463125-6.7716187,5.0350329-12.4155972,8.432713s-12.7752801,6.6043199-21.3395361,7.2864713c-6.0509319.481951-10.5923498-.3761998-13.7967441-1.490321s-5.071765-2.4842129-5.7746026-3.0261436c-2.6952043-2.0781783-5.3045625-5.1162616-7.0034341-8.6093843s-2.4872567-7.4412848-1.5405147-11.3396208c.0895905-.3689062.5399379-2.0604325,1.6225216-3.989971s2.7974035-4.0970891,5.415939-5.4180438c2.9304368-1.4783124,6.0503748-1.4193894,8.4773159-1.1144428s4.160885.8559168,4.3193339.3616987c.1322953-.4126447-.8613209-1.4676994-2.520319-2.4566236s-3.9833781-1.911718-6.5126102-2.059841Z"/><path class="cls-3" d="m166.2739761,103.6516856s.0896635,1.4293049-.017138,3.15792-.410068,3.7565405-1.1959281,4.9537816c-2.233695-.0501565-4.5868006-.0366366-7.0474025.0623739s-5.0287001.2835114-7.6923803.5753168c-5.6602844.6200851-10.8782622,1.6289728-15.6082725,2.8394717s-8.972053,2.6226091-12.6804672,4.0491393c-2.0697511.9570606-13.5444097,6.1348944-27.0622272,9.1191914-13.5178175,2.984297-29.0787939,3.7750573-39.3211807-4.0420292-1.5731439-1.2006359-3.927717-2.9976427-5.9789432-5.4761586s-3.7991053-5.6385409-4.1588613-9.5652134c-.4096816-4.4716007,1.1385086-8.3902699,2.9597235-11.3491035s3.9154544-4.9578315,4.5978712-5.5900893c.7063734-.4530022,1.7194219-1.0345988,3.0050215-1.5539298s2.8437504-.9763963,4.6403284-1.1803358c2.6017235-.2953373,4.8967533.0317514,6.728771.5346063s3.2010231,1.181476,3.9506979,1.5892033c0,0,1.7973993,1.1873958,2.9653283,3.7774633s1.7063878,6.5828069-.8114931,12.1934942c0,0-.8037855.9113818-2.773431,1.5371691s-5.1051512.9659802-9.7685915-.1763976c2.1608432-.7126964,3.8179693-1.9479129,4.860851-3.3569799s1.471519-2.9919847,1.1753847-4.4000834c-.1640845-.7802026-.5629303-1.5926917-1.123793-2.244394s-1.2837425-1.1426178-2.0958949-1.2796733c-1.726164-.2913074-3.8472446,1.0136248-5.5195389,3.048266s-2.8958022,4.7989914-2.8268206,7.4265199c.068576,2.6121888,1.4178304,5.212501,3.7055764,7.2974065s5.5139838,3.6544042,9.3365267,4.204966c2.2834528.4414155,5.0748371.8483317,8.2745169,1.0293894s6.8076551.1362572,10.7242898-.325761c4.6174764-.5446891,8.7139119-1.5571929,12.2167882-2.7193406s6.4121933-2.4739394,8.6554326-3.6172044c3.5585958-1.4499226,6.8601713-2.6791817,9.8321156-3.7157419s5.6142573-1.8804216,7.8543283-2.5595488c4.6165917-1.3996269,8.4587187-2.5544197,12.1717953-3.4241131s7.2971026-1.4542876,11.397492-1.7135172c3.4995423-.2212479,6.6961042-.1625646,9.4981901.0338311s5.209696.5305037,7.1313345.8601051Z"/><path class="cls-3" d="m166.3313625,125.7824394c.081913.4102654.1577977.9298613.1780663,1.5316632s-.0150789,1.2858097-.1556303,2.0248989c-.2475725,1.3018672-.7447955,2.3709707-1.2636494,3.1977284s-1.0593388,1.4111699-1.3934352,1.7436546c0,0-3.443325-.2538401-7.589888-.3385109s-8.9963639-.000172-11.8093155.6765057c0,0-3.4311082.035066-7.6101436.5360183s-9.105998,1.4677909-12.097707,3.331336c0,0-2.2392335,1.1790974-4.7896401,2.9094254s-5.4119863,4.0118866-6.6566786,6.2168091l-4.8964958,7.3554824-4.8964958,7.3554824s-1.4742158,2.5270089-3.7004441,5.5204649-5.2044694,6.453359-8.2125199,8.3191471c-3.0080462,1.8657876-6.5085382,3.0727088-9.2570187,3.8131832s-4.7449494,1.0145019-4.7449494,1.0145019c0,0-2.4695685.1936718-5.292717.1452916-2.8231485-.0483802-5.999877-.3388123-7.4141971-1.3070202s-3.871886-1.502641-6.2373172-4.2290925-4.6387275-7.6449214-5.6845084-17.3812031c-1.0457809-9.7362816,3.1960113-14.8225296,7.6992488-17.4747073s9.2679201-2.8702848,9.2679201-2.8702848c0,0,2.6921066-.660091,5.3417263.7923762s5.2567526,5.0174926,5.0868054,13.4677254c0,0-.6721754-.0530313-1.4352267-.2388809s-1.6169785-.5045173-1.9804819-1.0357902c0,0-.8696118-1.0429724-2.5557063-1.6832946s-4.1886718-.8779942-7.4546028.7326066c0,0-1.1594596.8757925-2.0556166,2.6622917s-1.5290115,4.4837053-.4758014,8.1265324c0,0,.2162307,2.7357633,1.4404825,5.4058153s3.4565248,5.2743927,7.4886095,5.0115476c0,0,2.3208256-.0279644,4.9911723-.6850688s5.6902147-1.9433485,7.0882995-4.459908c1.1236217-1.3512648,2.2667359-2.7827192,3.4186082-4.2958784s2.3125029-3.1080233,3.4711575-4.7861073c.987172-1.4297283,1.9166367-2.8383582,2.7916761-4.2198267s1.6956534-2.7357758,2.4651241-4.0568586c1.3828294-2.1221768,3.5546875-5.1345964,6.6786462-8.3262339s7.2000179-6.5624926,12.3912496-9.4015405c3.5959657-1.9666043,7.0682219-3.3177349,10.1996196-4.2524249s5.921937-1.4529394,8.1544689-1.7537812c1.0531556-.2107153,2.2565402-.4247714,3.5931781-.6161344s2.806529-.3600328,4.3926976-.4799756c1.6545744-.1251197,3.4050794-.2574915,5.3220976-.2742241s4.0005497.0821742,6.321177.4196117c1.1747907.1708198,2.1558216.3657646,3.4458864.6019235s2.8891638.5135317,5.3000905.8492077c.6569303.0914644,1.2570687.1709618,1.7844276.2385338s.9819384.1232187,1.3477508.1669817Z"/><path class="cls-3" d="m161.8667739,146.9199203s.1850783,1.9595564.068528,4.1718958-.5347292,4.6774617-1.7412436,5.6885934c0,0-3.7328159-.5020005-8.4705942-.5961248s-10.480519.2196276-14.5003686,1.8511324c0,0-2.0515207.3391249-4.596713,1.4417196s-5.5840562,2.9686594-7.5587425,6.022539c0,0-1.7817224,1.5962663-3.791072,4.2529563s-4.2463264,6.3738035-5.1568352,10.615498l-3.8546633,9.079452-3.8546633,9.079452s-.7233036,1.7748624-1.5846851,3.8019039-1.8608409,4.306262-2.4131524,5.3149784-1.6985306,2.5495214-2.7066717,3.8381474-1.8782044,2.3250729-1.8782044,2.3250729c0,0-1.477836,1.4096599-3.0351099,2.8262524s-3.1939858,2.8401177-3.5117375,2.8678483-1.9960595.9746282-3.5949293,1.9145932-3.1183018,1.8729973-3.1183018,1.8729973c0,0-2.7904387,1.0439548-6.2510441,1.7461812s-7.5913774,1.0627244-10.2720441-.3041891c0,0-2.6252054-.7314102-5.1368848-2.9135009s-4.9098328-5.8148621-4.4557288-11.6175845c0,0,.6355034-.0554612,1.4437479.0340881s1.7892302.3241092,2.4801949.9041513,1.5269398.9873432,2.1901738,1.2496336,1.1537269.3795704,1.1537269.3795704c.4377525.2095664.9194682.4190676,1.4438165.6172319s1.0913293.3849915,1.6996124.5492099c1.1830193.3193854,2.2971718.4925313,3.3054262.5741472s1.9106106.0717018,2.6700373.0249674c.5952852-.1433089,1.2138832-.3127376,1.8513858-.5133144s1.2939098-.4323016,1.9648133-.7002028c2.1933785-.8758097,4.0798344-1.953736,5.6760006-3.0689547s2.9020428-2.2677298,3.9342626-3.2927091c0,0,1.0428044-.8914364,2.5963244-3.2682167s3.6177556-6.2389044,5.6606181-12.1802798c2.0428625-5.9413754,3.3404495-9.4164213,4.1273209-11.4061234s1.0630272-2.4940602,1.0630272-2.4940602l2.6783659-5.9968367,2.6783659-5.9968367s.814602-1.6719503,2.5995031-4.1489665,4.5401014-5.7590981,8.4212979-8.9793614c3.8811965-3.2202633,7.8871808-5.0106439,10.9228659-5.9959587s5.1010712-1.1655638,5.1010712-1.1655638c0,0,5.57452-.3264099,11.5808928-.2902935s12.4445986.4347592,14.1720102,1.8848646Z"/><path class="cls-3" d="m154.8356776,171.8019119s.4996133,1.0546982.8668399,2.717378.6020665,3.9333412.0725196,6.3652674c0,0-4.4563164.2926628-9.2590867,1.6701358-4.8027703,1.377473-9.9519945,3.8397562-11.3378102,8.1789971,0,0-1.0291602,1.3772281-2.3952438,4.1070471s-3.0690905,6.812229-4.416784,12.2225929-2.0263055,7.9816554-2.3679942,9.200356-.3464539,1.0848102-.3464539,1.0848102c0,0-1.3429282,5.5442542-2.988752,11.2333487s-3.5945431,11.5230291-4.8061253,12.1023898c0,0-1.5872986,3.0058121-4.5471578,6.3956244s-7.2922787,7.1636246-12.7825206,8.6996251c0,0-1.6730734.5957855-4.5815552,1.1014799s-7.0523722.9212977-11.9940062.5609334c-4.9416339-.3603643-8.0992515-2.5270024-10.0214605-4.6035494s-2.6090096-4.0630029-2.6090096-4.0630029c-.2317424-.6697107-.8152263-2.4861238-.8730876-4.7748542s.4099-5.0497783,2.2806483-7.6087586c.3294687-.4506775.8450809-1.1428466,1.619163-1.8667778s1.8066342-1.4796243,3.1699825-2.0573497c1.7766927-.7528928,3.8512488-1.0917135,5.8335926-.9882845s3.8724752.6491078,5.2803185,1.6652139c.2445635.176512,1.2104333,1.3486759,2.1151622,2.4767117s1.7483169,2.2119437,1.7483169,2.2119437h0c-.9666606-.0284693-2.2587819.0050153-3.6559271.2652974s-2.8993143.7473618-4.2860707,1.6260823c-.6022051.3815881-1.0061146.7251729-1.2811159,1.0106163s-.4210941.5127452-.5076658.6617671c-.5383294.9266662-.650702,2.0550543-.3922667,3.1185039s.8876788,2.0619607,1.8325815,2.728873c.6979695.4926284,1.4608524.7285729,2.2878884.8353788s1.7182249.0844732,2.6728066.060547c1.3329104-.0333981,2.5253065-.2226524,3.5526638-.470195s1.8896756-.5533734,2.5624303-.8199244c2.7258385-1.0799787,4.923809-2.5388581,6.5433863-3.8454446s2.6607613-2.4608801,3.0730269-2.9316874c1.0515857-1.200927,2.7831842-4.4799947,4.2518863-7.4588308s2.6745077-5.6574403,2.6745077-5.6574403l2.1372486-9.1921437,2.1372486-9.1921437c.3851098-1.7387137.8562858-3.5855114,1.4350021-5.5226363s1.2649727-3.9645773,2.0802432-6.0646004c1.0163786-2.6180552,2.1175023-5.0506784,3.2494364-7.2928242s2.2946787-4.2938144,3.4342989-6.1499605c.5966055-.6771978,1.2859139-1.3989015,2.0779751-2.1395468s1.6868752-1.5002323,2.694492-2.253197c1.8851801-1.4087416,3.7765222-2.5038268,5.5367152-3.3565956s3.3892367-1.463221,4.7498201-1.9026968c.6384894-.1979742,1.3079875-.3902771,2.0077367-.572909s1.4297493-.355593,2.1892426-.5148836c1.7419949-.3653682,3.4032781-.6093585,4.9587851-.7650971s3.0052378-.2232255,4.324128-.2355868Z"/></svg>