<?xml version="1.0" encoding="UTF-8"?><svg id="Layer_2" xmlns="http://www.w3.org/2000/svg" width="348.2419487" height="423.0366376" viewBox="0 0 348.2419487 423.0366376"><defs><style>.cls-1{fill:none;stroke:#e5978a;stroke-miterlimit:10;stroke-width:12px;}</style></defs><path class="cls-1" d="m246.1761233,209.1016059c51.9601681,31.6279284,54.2193058,73.4219766,43.4884015,107.3090427s-34.4518506,59.8671502-34.4518506,59.8671502c0,18.0731019,8.1524718,25.6108621,16.3049436,28.6303467,8.1524718,3.0194847,16.3049436,1.5206938,16.3049436,1.5206938,72.7833871-86.5856781,60.8429678-149.4723129,30.7067017-190.7125282-30.1362661-41.2402153-78.468379-60.834011-78.468379-60.834011H110.6278588c-58.7375813,22.5913774-84.7176653,57.6080124-96.013354,86.976803-11.2956887,29.3687906-7.9069821,53.0897369-7.9069821,53.0897369,0,0,4.5182755,23.7209463,12.990042,49.1362459,8.4717665,25.4152996,20.8970241,52.5249525,36.7109883,59.3023657,15.8139642,6.7774132,24.8505152,1.1295689,29.9335751-6.2126288,5.0830599-7.3421977,6.2126288-16.3787486,6.2126288-16.3787486-49.7010303-60.996719-47.4418926-103.9203361-32.7574973-131.5947734s41.7940482-40.0996949,41.7940482-40.0996949l-2.6392895,103.8388016-2.6392895,103.8388016h157.3026865l-3.719646-103.8388016-3.719646-103.8388016Z"/><path class="cls-1" d="m241.6578478,73.5533414c0,18.7153098-7.5858781,35.6588429-19.8505837,47.9235485-12.2647056,12.2647056-29.2082387,19.8505837-47.9235485,19.8505837s-35.6588429-7.5858781-47.9235485-19.8505837c-12.2647056-12.2647056-19.8505837-29.2082387-19.8505837-47.9235485s7.5858781-35.6588429,19.8505837-47.9235485c12.2647056-12.2647056,29.2082387-19.8505837,47.9235485-19.8505837s35.6588429,7.5858781,47.9235485,19.8505837c12.2647056,12.2647056,19.8505837,29.2082387,19.8505837,47.9235485Z"/><path class="cls-1" d="m164.8471646,172.955402h18.0731019l2.2591377,9.036551,2.2591377,9.036551s-3.4069169,3.3887066-8.5036345,5.0830599-11.883236,1.6943533-18.6424389-5.0830599l2.277348-9.036551,2.277348-9.036551Z"/><path class="cls-1" d="m164.8473913,200.0650368c2.0991211.7931519,5.5942383,1.8126831,9.9941406,1.7141724,3.7924805-.0848999,6.8330078-.9686279,8.8041992-1.7141724l6.4145508,47.4418945,6.4150391,47.4418945-11.2958984,13.5548706-11.2958984,13.5548096-11.2954102-13.5548096-11.2958984-13.5548706,6.7773438-47.4418945,6.777832-47.4418945Z"/></svg>